<svg width="21" height="21" viewBox="0 0 21 21" fill="none" xmlns="http://www.w3.org/2000/svg">
<path fill-rule="evenodd" clip-rule="evenodd" d="M17.6778 10.8372C17.6778 6.86151 14.4549 3.63857 10.4792 3.63857C6.50345 3.63857 3.28051 6.86151 3.28051 10.8372C3.28051 14.8129 6.50345 18.0359 10.4792 18.0359C14.4549 18.0359 17.6778 14.8129 17.6778 10.8372ZM9.84398 6.60271C9.84398 6.25191 10.1284 5.96754 10.4792 5.96754C10.8299 5.96754 11.1143 6.25191 11.1143 6.60271V10.8372C11.1143 11.0562 11.0015 11.2598 10.8158 11.3758L8.2751 12.9638C7.97762 13.1497 7.58575 13.0593 7.39983 12.7618C7.21391 12.4643 7.30434 12.0724 7.60181 11.8865L9.84398 10.4852V6.60271Z" fill="black"/>
</svg>
