<svg width="24" height="24" viewBox="0 0 24 24" fill="none" xmlns="http://www.w3.org/2000/svg">
<path fill-rule="evenodd" clip-rule="evenodd" d="M15.894 22.275C12.876 22.275 9.32496 20.7207 6.34296 17.8295C1.58496 13.2123 0.342957 7.18545 3.51496 4.10798C4.45196 3.19988 5.59196 2.64686 6.90696 2.46253L7.66696 2.3558L10.464 8.68344L7.66696 10.0398C8.31496 11.2312 9.29696 12.4624 10.586 13.713C11.815 14.9053 13.083 15.8513 14.356 16.5226L15.67 14.0263L22.153 14.9247L22.191 15.7271C22.286 17.7247 21.696 19.4003 20.485 20.5742C19.301 21.7229 17.692 22.275 15.894 22.275ZM6.46096 4.55233C5.88596 4.73958 5.37196 5.05102 4.92896 5.48178C2.62896 7.71227 3.92496 12.7389 7.75696 16.4576C11.591 20.1764 16.771 21.4309 19.071 19.2014C19.837 18.4582 20.113 17.4783 20.181 16.6109L16.814 16.1443L16.168 17.3997C15.924 17.8732 15.503 18.2215 14.982 18.3796C14.461 18.5397 13.883 18.4824 13.399 18.2273C11.959 17.4676 10.536 16.4101 9.17096 15.0858C7.74096 13.6984 6.64196 12.312 5.90296 10.9644C5.64596 10.4938 5.59696 9.95634 5.76296 9.4499C5.92896 8.94636 6.28796 8.53985 6.77496 8.30312L7.88096 7.7666L6.46096 4.55233Z" fill="#92989F"/>
</svg>
